<svg width="127" height="127" viewBox="0 0 127 127" fill="none" xmlns="http://www.w3.org/2000/svg">
<path d="M91.6583 73.9378C97.5171 68.3186 101.561 61.0749 103.269 53.1386C104.977 45.2024 104.272 36.9365 101.244 29.4045C98.2154 21.8724 93.0029 15.4186 86.2766 10.8733C79.5503 6.32804 71.618 3.89917 63.5 3.89917C55.382 3.89917 47.4496 6.32804 40.7234 10.8733C33.9971 15.4186 28.7846 21.8724 25.7565 29.4045C22.7283 36.9365 22.0229 45.2024 23.7311 53.1386C25.4393 61.0749 29.4829 68.3186 35.3417 73.9378L16.0139 107.394C15.8088 107.714 15.6997 108.086 15.6997 108.466C15.6997 108.846 15.8088 109.218 16.0139 109.538C16.232 109.849 16.5349 110.091 16.8867 110.235C17.2385 110.38 17.6243 110.42 17.9983 110.351L34.3098 107.295L39.9256 123.031C40.0532 123.389 40.2806 123.702 40.5809 123.934C40.8812 124.166 41.2417 124.307 41.6198 124.341C41.9978 124.374 42.3775 124.298 42.7138 124.123C43.0502 123.947 43.329 123.678 43.5173 123.349L63.5 88.6619L83.4827 123.269C83.6643 123.601 83.937 123.874 84.2687 124.056C84.6003 124.238 84.977 124.321 85.3545 124.296C85.7319 124.271 86.0944 124.139 86.3991 123.915C86.7038 123.691 86.9381 123.384 87.0744 123.031L92.5909 107.375L108.903 110.43C109.276 110.499 109.662 110.459 110.014 110.315C110.366 110.171 110.669 109.928 110.887 109.617C111.092 109.297 111.201 108.925 111.201 108.545C111.201 108.165 111.092 107.793 110.887 107.474L91.6583 73.9378ZM26.7891 44.6484C26.7891 37.3877 28.9421 30.29 32.976 24.2529C37.0098 18.2159 42.7433 13.5105 49.4513 10.732C56.1594 7.95339 63.5407 7.22639 70.662 8.64289C77.7832 10.0594 84.3244 13.5558 89.4585 18.6899C94.5927 23.824 98.0891 30.3653 99.5056 37.4865C100.922 44.6077 100.195 51.9891 97.4165 58.6971C94.6379 65.4051 89.9326 71.1386 83.8955 75.1725C77.8584 79.2063 70.7607 81.3594 63.5 81.3594C53.7669 81.3489 44.4354 77.4778 37.553 70.5954C30.6707 63.713 26.7996 54.3816 26.7891 44.6484V44.6484ZM38.3977 76.5969C39.4295 77.4105 40.5209 78.1844 41.6322 78.8987L26.7295 104.696L21.6098 105.648L38.3977 76.5969ZM35.3616 103.188L31.8691 103.823L45.0652 80.9625C47.4564 82.1794 49.9624 83.1565 52.5462 83.8795L38.7548 107.692L37.5841 104.378C37.409 103.953 37.0916 103.602 36.6862 103.384C36.2808 103.167 35.8126 103.098 35.3616 103.188V103.188ZM42.2275 117.654L40.5011 112.712L56.5944 84.7923C58.0258 85.0393 59.4701 85.2049 60.9203 85.2884L42.2275 117.654ZM84.7725 117.654L66.0797 85.1892C67.5299 85.1057 68.9742 84.9401 70.4056 84.6931L86.4989 112.613L84.7725 117.654ZM91.6384 103.188C91.1752 103.104 90.6973 103.188 90.2902 103.424C89.8831 103.66 89.5732 104.034 89.4159 104.477L88.2452 107.791L74.4538 83.7803C77.0376 83.0573 79.5436 82.0802 81.9348 80.8633L95.1309 103.723L91.6384 103.188ZM100.27 104.795L85.3281 78.8987C86.4394 78.1844 87.5308 77.4105 88.5627 76.5969L105.35 105.648L100.27 104.795Z" fill="#883100"/>
<path d="M50.6809 48.5973C50.7881 48.7056 50.8689 48.8371 50.9171 48.9816C50.9652 49.1262 50.9795 49.2798 50.9587 49.4308L50.2443 55.3839C50.1285 56.2618 50.2517 57.1547 50.601 57.9685C50.9502 58.7822 51.5126 59.4866 52.2287 60.0075C52.9621 60.5495 53.8264 60.8866 54.7331 60.9843C55.6398 61.0819 56.5561 60.9365 57.3881 60.5631L62.9642 58.0628C63.1178 57.9844 63.2878 57.9435 63.4603 57.9435C63.6327 57.9435 63.8027 57.9844 63.9564 58.0628L69.5325 60.5631C70.3644 60.9365 71.2807 61.0819 72.1874 60.9843C73.0941 60.8866 73.9585 60.5495 74.6918 60.0075C75.408 59.4866 75.9703 58.7822 76.3196 57.9685C76.6688 57.1547 76.792 56.2618 76.6762 55.3839L75.9618 49.4308C75.941 49.2798 75.9553 49.1262 76.0035 48.9816C76.0516 48.8371 76.1325 48.7056 76.2396 48.5973L80.4068 44.192C81.0257 43.5443 81.4577 42.7411 81.6568 41.8676C81.856 40.9941 81.8149 40.0831 81.5379 39.2311C81.2515 38.3518 80.7305 37.5674 80.0311 36.9625C79.3318 36.3575 78.4805 35.9549 77.5692 35.7981L71.6161 34.6273C71.4566 34.5976 71.3052 34.5345 71.1718 34.4422C71.0384 34.3498 70.9261 34.2303 70.8421 34.0915L67.8457 28.8528C67.3939 28.0743 66.7454 27.4281 65.9653 26.9789C65.1853 26.5298 64.3009 26.2933 63.4007 26.2933C62.5006 26.2933 61.6162 26.5298 60.8361 26.9789C60.056 27.4281 59.4076 28.0743 58.9557 28.8528L55.9593 34.0915C55.8754 34.2303 55.763 34.3498 55.6297 34.4422C55.4963 34.5345 55.3449 34.5976 55.1854 34.6273L49.2323 35.7981C48.321 35.9549 47.4697 36.3575 46.7703 36.9625C46.071 37.5674 45.55 38.3518 45.2635 39.2311C44.9866 40.0831 44.9455 40.9941 45.1446 41.8676C45.3438 42.7411 45.7757 43.5443 46.3946 44.192L50.6809 48.5973ZM49.1728 40.4415C49.2308 40.2509 49.3418 40.0807 49.4929 39.9507C49.644 39.8207 49.8289 39.7363 50.026 39.7073L55.9792 38.5167C56.7171 38.3969 57.4189 38.1138 58.0335 37.6881C58.648 37.2624 59.1597 36.7048 59.5312 36.0561L62.5276 30.8372C62.6329 30.6691 62.7792 30.5305 62.9528 30.4344C63.1263 30.3383 63.3214 30.2879 63.5198 30.2879C63.7182 30.2879 63.9133 30.3383 64.0868 30.4344C64.2604 30.5305 64.4067 30.6691 64.512 30.8372L67.4687 36.0561C67.8299 36.6933 68.3261 37.2437 68.9226 37.6688C69.5191 38.0938 70.2013 38.3833 70.9215 38.5167L76.8746 39.7073C77.0718 39.7363 77.2567 39.8207 77.4078 39.9507C77.5588 40.0807 77.6699 40.2509 77.7279 40.4415C77.7932 40.6148 77.8054 40.8036 77.763 40.9838C77.7206 41.1641 77.6255 41.3276 77.4898 41.4536L73.4218 45.8589C72.9275 46.3863 72.5514 47.0132 72.3187 47.6976C72.086 48.382 72.002 49.1082 72.0725 49.8276L72.8067 55.7808C72.8256 55.9641 72.7951 56.1491 72.7183 56.3166C72.6415 56.4841 72.5213 56.6279 72.3701 56.7333C72.2046 56.8656 72.0052 56.9489 71.7947 56.9734C71.5842 56.998 71.371 56.9629 71.1795 56.8722L65.6034 54.352C64.9341 54.058 64.2111 53.9061 63.4801 53.9061C62.7491 53.9061 62.0261 54.058 61.3568 54.352L55.8006 56.9515C55.6096 57.0446 55.396 57.081 55.1849 57.0564C54.9739 57.0318 54.7744 56.9472 54.61 56.8126C54.4588 56.7073 54.3386 56.5634 54.2618 56.3959C54.185 56.2284 54.1545 56.0434 54.1734 55.8601L54.9076 49.907C54.9793 49.1875 54.896 48.4609 54.6632 47.7763C54.4305 47.0917 54.0537 46.465 53.5582 45.9383L49.4109 41.4536C49.2752 41.3276 49.1801 41.1641 49.1377 40.9838C49.0953 40.8036 49.1075 40.6148 49.1728 40.4415V40.4415Z" fill="#883100"/>
<path d="M63.5 13.8906C56.0822 13.8862 48.9128 16.5626 43.3125 21.4268C37.7123 26.2909 34.0585 33.015 33.0243 40.3603C31.9902 47.7056 33.6454 55.1772 37.6849 61.3985C41.7245 67.6199 47.8763 72.1718 55.0068 74.2156C55.5121 74.363 56.0552 74.3036 56.5166 74.0505C56.9781 73.7975 57.3201 73.3715 57.4675 72.8663C57.6148 72.361 57.5555 71.8179 57.3024 71.3565C57.0493 70.895 56.6233 70.553 56.1181 70.4056C49.909 68.6258 44.552 64.6624 41.0337 59.2455C37.5154 53.8286 36.0728 47.3229 36.9715 40.9265C37.8701 34.5301 41.0496 28.6738 45.9243 24.4361C50.7991 20.1984 57.0408 17.8646 63.5 17.8646C69.9592 17.8646 76.2009 20.1984 81.0756 24.4361C85.9503 28.6738 89.1298 34.5301 90.0285 40.9265C90.9272 47.3229 89.4845 53.8286 85.9662 59.2455C82.448 64.6624 77.091 68.6258 70.8819 70.4056C70.6245 70.4701 70.3827 70.5854 70.1708 70.7449C69.9588 70.9044 69.7809 71.1048 69.6477 71.3342C69.5145 71.5636 69.4287 71.8173 69.3953 72.0805C69.3618 72.3436 69.3815 72.6108 69.4531 72.8663C69.5768 73.2918 69.8394 73.6636 70.1991 73.9226C70.5587 74.1815 70.9947 74.3126 71.4375 74.295C71.6218 74.3211 71.8088 74.3211 71.9931 74.295C79.1918 72.307 85.4214 67.7678 89.5193 61.5244C93.6173 55.281 95.3037 47.7598 94.2639 40.3644C93.224 32.9689 89.529 26.2044 83.8683 21.3331C78.2075 16.4618 70.9678 13.8164 63.5 13.8906V13.8906Z" fill="#883100"/>
<path d="M63.5 75.4062C64.5959 75.4062 65.4844 74.5178 65.4844 73.4219C65.4844 72.3259 64.5959 71.4375 63.5 71.4375C62.4041 71.4375 61.5156 72.3259 61.5156 73.4219C61.5156 74.5178 62.4041 75.4062 63.5 75.4062Z" fill="#883100"/>
</svg>
