<svg width="127" height="109" viewBox="0 0 127 109" fill="none" xmlns="http://www.w3.org/2000/svg">
<path d="M50.3048 26.7245C50.3048 26.7245 50.3123 30.9562 50.8765 36.0131C51.857 42.6246 52.3199 47.5898 56.2965 52.4806H45.3163L33.0418 29.9974C36.3115 27.919 39.3108 25.659 36.3208 20.7145L31.4886 11.8763C29.2257 7.73707 25.0023 5.22127 20.4815 5.32471C18.3869 5.36949 16.3408 5.96931 14.5331 7.06928L6.19547 12.1784C0.290574 15.7845 -1.76008 23.8446 1.64915 30.0887L6.45971 38.9212C6.46327 38.927 6.46686 38.93 6.47047 38.9302C6.47406 38.933 6.47768 38.9358 6.48131 38.9389C8.76765 42.5838 12.4388 42.4883 15.7357 40.5755L22.2343 52.4757H11.7179C10.193 52.4698 8.95203 53.7715 8.94592 55.3838V71.4405C8.95203 73.0528 10.193 74.355 11.7179 74.3488H18.7612C19.5932 82.439 24.7138 90.6031 32.6751 97.02C41.3869 104.042 53.6352 109 67.9993 109C82.3634 109 94.5902 104.042 103.302 97.02C111.263 90.6031 116.378 82.439 117.21 74.3488H121.056C122.572 74.343 123.8 73.044 123.806 71.4405V55.3838C123.8 53.7803 122.572 52.482 121.056 52.4757H114.32C117.094 49.0114 119.571 45.0996 121.584 41.5278C124.712 35.9785 126.74 31.3326 126.74 31.3326C127.547 29.4976 126.387 27.3719 124.48 27.1929C124.48 27.1929 118.666 26.6751 111.467 26.7422C115.437 16.3107 117.324 3.38089 117.324 3.38089C117.607 1.56453 116.249 -0.0719803 114.366 0.00244404C102.873 2.41331 85.8664 4.81756 77.1674 14.5622C73.3829 19.0021 71.2796 25.5807 69.8491 32.2897C67.5157 30.5355 64.907 29.0669 62.4715 27.7967C57.9542 25.4408 53.8266 23.9153 53.8266 23.9153C51.8274 23.421 50.3642 24.4467 50.3049 26.6963L50.3048 26.7245ZM110.68 6.7219C110.001 10.5354 108.443 19.3324 105.152 26.9527C100.548 27.2285 95.856 27.8437 91.7663 29.1879C94.6057 25.6247 97.4979 22.6585 100.406 19.8252C101.537 18.7317 101.61 16.8738 100.568 15.6855C99.0332 14.3789 98.1207 14.3515 96.6577 15.5322C90.8694 21.1722 84.7019 27.8076 79.1035 38.4202C78.2718 39.3967 77.4668 40.3997 76.682 41.4195C76.2246 39.761 75.2023 37.6111 74.7028 37.1944V37.1886C76.0927 29.7134 78.2752 21.9716 81.2661 18.463C84.5982 14.5538 93.1476 10.9477 100.751 8.83217C106.064 7.35407 108.259 7.12626 110.68 6.7219ZM26.7213 14.779L31.5318 23.6172C31.6731 23.8769 31.6144 24.1356 31.37 24.2843L27.8808 26.394C26.5532 27.2054 26.1053 29.0052 26.8831 30.4025L38.931 52.4751H28.598L19.1171 35.124C18.3575 33.7259 16.6699 33.2431 15.3474 34.0458L11.8635 36.1784C11.6181 36.3289 11.3907 36.268 11.2487 36.0073L6.422 27.1692C4.50467 23.6575 5.62512 19.2414 8.94592 17.2134L17.3051 12.1273C18.313 11.5138 19.4292 11.1814 21.2756 11.1406C23.1219 11.0958 25.4616 12.4749 26.7213 14.779ZM56.1131 31.2634C60.6433 33.5388 66.9873 35.8611 70.3399 40.7688C71.1364 42.0079 71.817 44.7568 72.3029 47.5429C72.0749 47.8859 71.8233 48.2487 71.6072 48.5801C70.8941 47.8565 70.1724 47.0842 69.4662 46.3961C67.8318 45.2021 66.7877 45.4152 65.5509 46.5672C64.5235 47.7525 64.5958 49.593 65.7127 50.6841C66.298 51.2546 66.8774 51.877 67.46 52.4631L65.5509 52.4541C62.9671 50.8623 60.5463 49.0245 59.597 47.6268C57.118 42.3043 56.2965 36.2397 56.1131 31.2675L56.1131 31.2634ZM119.707 32.8828C118.862 34.658 118.575 35.4383 116.833 38.5279C113.986 43.5781 110.089 49.2182 106.478 52.4751L84.0273 52.4571C92.0021 47.88 98.8555 45.9192 105.562 44.326C107.054 43.9776 107.994 42.4132 107.659 40.8366C106.777 38.7227 105.717 38.3902 104.359 38.6126C96.5588 40.4655 87.9313 43.0435 77.8577 49.4864C82.5853 42.9708 87.8563 36.2314 93.7455 34.684C102.62 32.5956 111.107 32.2554 119.707 32.8828ZM14.4683 58.3194H118.284V68.5092H14.4683V58.3194ZM25.826 74.9979H110.151C109.13 80.6626 106.566 87.0634 99.9582 92.3893C92.238 98.6119 81.163 103.166 67.9993 103.166C54.8355 103.166 43.7336 98.6119 36.0134 92.3893C29.4057 87.0634 26.8465 80.6626 25.826 74.9979Z" fill="#883100"/>
</svg>
